<?xml version="1.0" encoding="UTF-8"?>
<svg xmlns="http://www.w3.org/2000/svg" xmlns:xlink="http://www.w3.org/1999/xlink">
    <symbol id="icon_vk" viewBox="0 0 20 20">
        <path d="M19.8939 14.6963C19.8697 14.644 19.8471 14.6006 19.8262 14.5659C19.4792 13.94 18.8161 13.1717 17.8372 12.2608L17.8166 12.24L17.8062 12.2297L17.7957 12.2193H17.7852C17.341 11.7951 17.0597 11.5099 16.9419 11.3639C16.7263 11.0858 16.678 10.8043 16.7959 10.519C16.8791 10.3035 17.1917 9.84834 17.733 9.15294C18.0178 8.7844 18.2433 8.48903 18.4098 8.26649C19.6109 6.66725 20.1316 5.64532 19.9719 5.20029L19.9098 5.09629C19.8681 5.03368 19.7606 4.9764 19.5872 4.92416C19.4134 4.87204 19.1914 4.86342 18.9206 4.89815L15.9216 4.9189C15.8731 4.90166 15.8037 4.90327 15.7133 4.92416C15.623 4.94506 15.5779 4.95554 15.5779 4.95554L15.5257 4.98166L15.4843 5.01304C15.4495 5.03379 15.4114 5.07028 15.3697 5.12244C15.3282 5.17442 15.2935 5.23543 15.2658 5.30494C14.9393 6.14624 14.5681 6.92844 14.1515 7.65149C13.8946 8.08264 13.6587 8.4563 13.4432 8.77268C13.2281 9.08894 13.0476 9.32196 12.9019 9.47133C12.756 9.62084 12.6244 9.74062 12.5061 9.8311C12.388 9.92162 12.2979 9.95987 12.2355 9.94588C12.173 9.93189 12.1141 9.91801 12.0583 9.90412C11.9612 9.84151 11.883 9.75636 11.8241 9.6486C11.765 9.54084 11.7252 9.40521 11.7043 9.24182C11.6836 9.07831 11.6714 8.93768 11.6679 8.81943C11.6646 8.70133 11.6661 8.53429 11.6732 8.31877C11.6804 8.10314 11.6836 7.95724 11.6836 7.88075C11.6836 7.6165 11.6888 7.32971 11.6991 7.02031C11.7096 6.71091 11.7181 6.46576 11.7252 6.28516C11.7323 6.10438 11.7356 5.91311 11.7356 5.71147C11.7356 5.50983 11.7233 5.3517 11.6991 5.23692C11.6752 5.1223 11.6384 5.01103 11.59 4.90316C11.5413 4.7954 11.4701 4.71204 11.3766 4.65286C11.2829 4.59376 11.1664 4.54686 11.0277 4.51201C10.6598 4.42861 10.1912 4.3835 9.62183 4.37648C8.33067 4.3626 7.50103 4.44611 7.1331 4.62689C6.98732 4.70327 6.8554 4.80764 6.73745 4.93965C6.61245 5.09267 6.59502 5.17618 6.68525 5.18991C7.10184 5.25241 7.39676 5.40193 7.57033 5.63831L7.63288 5.76356C7.68153 5.85394 7.73012 6.01393 7.77873 6.24334C7.82728 6.47274 7.85861 6.7265 7.87239 7.00449C7.90704 7.51213 7.90704 7.94668 7.87239 8.30817C7.83764 8.66981 7.80481 8.95134 7.77348 9.15298C7.74215 9.35462 7.69532 9.51801 7.63288 9.64313C7.57033 9.76827 7.52872 9.84477 7.50785 9.87253C7.48703 9.90029 7.46967 9.91779 7.45588 9.92465C7.36565 9.95928 7.2718 9.97693 7.17468 9.97693C7.0774 9.97693 6.95945 9.9282 6.82064 9.83081C6.68186 9.73342 6.53783 9.59966 6.38855 9.42928C6.23927 9.25888 6.07091 9.02074 5.88341 8.71485C5.69605 8.40896 5.50165 8.04743 5.30032 7.63027L5.13375 7.32773C5.02962 7.13311 4.88738 6.84972 4.70688 6.47781C4.52627 6.10577 4.36663 5.74588 4.22785 5.39824C4.17237 5.25223 4.08904 5.14107 3.97798 5.06458L3.92586 5.0332C3.89121 5.00544 3.83559 4.97596 3.75929 4.94455C3.68288 4.91317 3.60315 4.89067 3.51977 4.87682L0.66657 4.89757C0.37501 4.89757 0.177183 4.96372 0.0730178 5.09585L0.0313298 5.15835C0.0105041 5.19316 0 5.24876 0 5.32529C0 5.40178 0.0208258 5.49566 0.0625138 5.60682C0.479029 6.58726 0.93198 7.53281 1.42137 8.44362C1.91075 9.35444 2.33602 10.0881 2.69692 10.644C3.05789 11.2003 3.42582 11.7254 3.80072 12.2189C4.17562 12.7125 4.42378 13.0289 4.5452 13.1679C4.66676 13.3072 4.76224 13.4113 4.83165 13.4808L5.09203 13.731C5.25863 13.8979 5.50329 14.0978 5.82611 14.3307C6.149 14.5637 6.50646 14.7931 6.89869 15.0193C7.29099 15.2451 7.74737 15.4293 8.26808 15.5718C8.78873 15.7145 9.29548 15.7717 9.7884 15.7441H10.9859C11.2288 15.7231 11.4128 15.6466 11.5379 15.5146L11.5793 15.4623C11.6072 15.4208 11.6333 15.3563 11.6573 15.2696C11.6817 15.1827 11.6938 15.0869 11.6938 14.9828C11.6867 14.6839 11.7094 14.4145 11.7613 14.1746C11.8132 13.9348 11.8724 13.7541 11.9386 13.6323C12.0047 13.5107 12.0793 13.408 12.1624 13.3248C12.2456 13.2414 12.3049 13.1909 12.3397 13.1735C12.3743 13.156 12.4019 13.1441 12.4227 13.137C12.5893 13.0814 12.7854 13.1353 13.0112 13.2988C13.2369 13.4622 13.4485 13.6639 13.6465 13.9037C13.8444 14.1437 14.0821 14.413 14.3597 14.7119C14.6375 15.0109 14.8804 15.2332 15.0886 15.3794L15.2968 15.5046C15.4358 15.5881 15.6163 15.6646 15.8385 15.7341C16.0603 15.8036 16.2546 15.8209 16.4215 15.7862L19.0872 15.7446C19.3508 15.7446 19.556 15.7008 19.7015 15.6141C19.8473 15.5272 19.9339 15.4314 19.9619 15.3273C19.9897 15.223 19.9912 15.1048 19.9672 14.9725C19.9425 14.8406 19.9181 14.7484 19.8939 14.6963Z"/>
    </symbol>
    <symbol id="icon_telegram" viewBox="0 0 20 20">
        <path d="M7.84784 11.9598L7.517 16.4968C7.99034 16.4968 8.19534 16.2986 8.44118 16.0605L10.6604 13.9927L15.2588 17.276C16.1022 17.7342 16.6964 17.4929 16.9239 16.5196L19.9423 2.72988L19.9431 2.72907C20.2106 1.51358 19.4923 1.03827 18.6706 1.33645L0.928504 7.95911C-0.282359 8.41736 -0.264025 9.07548 0.722666 9.37366L5.25861 10.7492L15.7947 4.32156C16.2905 4.00144 16.7414 4.17856 16.3705 4.49869L7.84784 11.9598Z"/>
    </symbol>
    <symbol id="icon_whatsapp" viewBox="0 0 20 20">
        <path d="M16.1116 3.9147C14.5193 2.28885 12.3182 1.40625 10.0702 1.40625C5.29334 1.40625 1.45308 5.26183 1.49991 9.95355C1.49991 11.44 1.92141 12.8801 2.62389 14.1807L1.40625 18.5938L5.949 17.4324C7.21347 18.1292 8.61844 18.4544 10.0234 18.4544C14.7535 18.4544 18.5938 14.5988 18.5938 9.90709C18.5938 7.63091 17.7039 5.49409 16.1116 3.9147Z" fill="white"/>
        <path d="M16.1116 3.9147C14.5193 2.28885 12.3182 1.40625 10.0702 1.40625C5.29334 1.40625 1.45308 5.26183 1.49991 9.95355C1.49991 11.44 1.92141 12.8801 2.62389 14.1807L1.40625 18.5938L5.949 17.4324C7.21347 18.1292 8.61844 18.4544 10.0234 18.4544C14.7535 18.4544 18.5938 14.5988 18.5938 9.90709C18.5938 7.63091 17.7039 5.49409 16.1116 3.9147Z"/>
        <path d="M15.172 12.1512L15.8226 12.4419C15.9409 12.5 16 12.5581 16 12.5581V12.9651C15.9409 13.2558 15.8817 13.5465 15.7634 13.7791C15.7043 13.8953 15.586 14.0116 15.4677 14.1279C15.3495 14.2442 15.2312 14.3023 15.1129 14.4186L14.9946 14.5349C14.8763 14.6512 14.7581 14.6512 14.5806 14.7674C14.3441 14.8837 13.9892 15 13.6935 15H13.1022C12.9247 14.9419 12.6882 14.9419 12.5108 14.8837C10.914 14.4767 9.49462 13.7209 8.25269 12.6744C8.13441 12.5 7.95699 12.3837 7.77957 12.2093L7.54301 11.9767C6.59677 11.1047 5.8871 10.1163 5.35484 9.01163L5.2957 8.83721C5.11828 8.43023 5 7.96512 5 7.5C5 6.86046 5.23656 6.22093 5.65054 5.69767C5.76882 5.58139 5.82796 5.46512 5.94624 5.34884C6.06452 5.2907 6.1828 5.17442 6.30108 5.11628L6.36022 5.05814C6.47849 5.05814 6.59677 5 6.71505 5H7.18817H7.36559C7.54301 5.05814 7.66129 5.11628 7.77957 5.2907C7.95699 5.63954 8.66667 7.2093 8.72581 7.5C8.78495 7.67442 8.72581 7.90698 8.60753 8.0814C8.48925 8.19767 8.43011 8.37209 8.31183 8.48837C8.13441 8.66279 7.89785 8.95349 7.89785 8.95349C7.83871 9.01163 7.83871 9.12791 7.83871 9.24419C7.89785 9.36047 7.89785 9.41861 7.95699 9.47674L8.01613 9.59302C8.31183 10.1163 8.72581 10.5814 9.13978 10.9884C9.25806 11.1047 9.43548 11.2209 9.55376 11.3372C10.0269 11.8023 10.6183 12.1512 11.2688 12.4419L11.5645 12.5581C11.6237 12.6163 11.7419 12.6744 11.8011 12.6744H11.8602C11.9785 12.6744 12.0968 12.6163 12.1559 12.5C12.9839 11.5698 13.043 11.5116 13.043 11.5116C13.1613 11.4535 13.2796 11.3953 13.457 11.3953C13.5161 11.3953 13.5753 11.4535 13.6344 11.4535C14.2258 11.7442 15.172 12.1512 15.172 12.1512Z" fill="white"/>
    </symbol>
    <symbol id="icon_viber" viewBox="0 0 20 20">
        <path d="M17.4585 1.95128C16.9624 1.49511 14.9536 0.0345762 10.476 0.0145689C10.476 0.0145689 5.19806 -0.305548 2.62512 2.05532C1.1926 3.48784 0.688415 5.5806 0.636396 8.18156C0.584377 10.7785 0.516352 15.6483 5.21007 16.9688H5.21407L5.21007 18.9815C5.21007 18.9815 5.18206 19.7978 5.71825 19.9619C6.36649 20.1619 6.75063 19.5417 7.37086 18.8735C7.71098 18.5053 8.17915 17.9691 8.53528 17.557C11.7445 17.8251 14.2134 17.2089 14.4935 17.1168C15.1417 16.9047 18.811 16.4366 19.4073 11.5668C20.0235 6.55696 19.1072 3.3838 17.4585 1.95128ZM18.0027 11.2147C17.4986 15.2802 14.5255 15.5362 13.9773 15.7123C13.7452 15.7883 11.5764 16.3285 8.8474 16.1485C8.8474 16.1485 6.81465 18.6014 6.18242 19.2376C6.08239 19.3376 5.96634 19.3777 5.89032 19.3576C5.78228 19.3296 5.75027 19.2016 5.75427 19.0135C5.75427 18.7414 5.77027 15.6643 5.77027 15.6643C5.76627 15.6643 5.76627 15.6643 5.77027 15.6643C1.79682 14.5639 2.0289 10.4184 2.07292 8.24958C2.11694 6.08079 2.52509 4.30014 3.73753 3.1037C5.91032 1.13498 10.396 1.42709 10.396 1.42709C14.1813 1.44309 15.994 2.58351 16.4142 2.96365C17.8107 4.16409 18.5229 7.02513 18.0027 11.2147Z"/>
        <path d="M12.3207 8.32562C12.1886 8.32562 12.0766 8.22158 12.0686 8.08553C12.0246 7.22521 11.6204 6.80506 10.7961 6.76104C10.6561 6.75304 10.548 6.633 10.556 6.49295C10.564 6.3529 10.6841 6.24486 10.8241 6.25286C11.9125 6.31288 12.5208 6.93711 12.5768 8.05752C12.5848 8.19757 12.4767 8.31761 12.3367 8.32162C12.3287 8.32562 12.3247 8.32562 12.3207 8.32562Z"/>
        <path d="M13.6171 8.75786H13.6131C13.4731 8.75386 13.361 8.63782 13.3651 8.49777C13.3851 7.63345 13.137 6.9332 12.6088 6.35699C12.0846 5.78077 11.3603 5.46866 10.404 5.40063C10.2639 5.38863 10.1599 5.26859 10.1719 5.12854C10.1839 4.98848 10.3039 4.88445 10.444 4.89645C11.5244 4.97648 12.3767 5.35262 12.9849 6.01686C13.5971 6.6851 13.8932 7.52141 13.8732 8.50977C13.8692 8.64982 13.7532 8.75786 13.6171 8.75786Z"/>
        <path d="M14.9456 9.27793C14.8056 9.27793 14.6935 9.16589 14.6935 9.02584C14.6815 7.47727 14.2374 6.29684 13.333 5.41252C12.4407 4.5402 11.3083 4.09604 9.97581 4.08403C9.83576 4.08403 9.72371 3.96799 9.72371 3.82794C9.72371 3.68789 9.83976 3.57585 9.97581 3.57585C11.4443 3.58785 12.6928 4.08003 13.6812 5.04838C14.6735 6.01674 15.1817 7.35323 15.1977 9.01784C15.2017 9.16189 15.0897 9.27793 14.9456 9.27793C14.9496 9.27793 14.9496 9.27793 14.9456 9.27793Z"/>
        <path d="M10.8561 11.4587C10.8561 11.4587 11.2123 11.4907 11.4043 11.2546L11.7765 10.7865C11.9565 10.5544 12.3927 10.4063 12.8169 10.6424C13.0529 10.7745 13.4811 11.0386 13.7452 11.2346C14.0293 11.4427 14.6055 11.9229 14.6095 11.9269C14.8856 12.159 14.9496 12.4991 14.7616 12.8632C14.7616 12.8632 14.7616 12.8672 14.7616 12.8712C14.5695 13.2113 14.3094 13.5315 13.9853 13.8276C13.9813 13.8276 13.9813 13.8316 13.9773 13.8316C13.7092 14.0557 13.4451 14.1837 13.189 14.2117C13.157 14.2197 13.121 14.2197 13.0729 14.2197C12.9609 14.2197 12.8489 14.2037 12.7368 14.1677L12.7288 14.1557C12.3287 14.0437 11.6644 13.7635 10.56 13.1513C9.83976 12.7552 9.24355 12.351 8.73536 11.9469C8.46726 11.7348 8.19516 11.4987 7.91506 11.2186C7.90706 11.2106 7.89505 11.1986 7.88705 11.1906C7.87905 11.1826 7.86704 11.1706 7.85904 11.1626C7.85104 11.1546 7.83903 11.1426 7.83103 11.1346C7.82303 11.1266 7.81102 11.1146 7.80302 11.1066C7.52692 10.8265 7.28683 10.5544 7.07475 10.2863C6.6706 9.78209 6.26646 9.18187 5.87031 8.46161C5.25809 7.3532 4.97799 6.68896 4.86594 6.29282L4.85394 6.28481C4.81793 6.17277 4.80192 6.06073 4.80192 5.94869C4.80192 5.90067 4.80192 5.86466 4.80992 5.83265C4.84194 5.57255 4.96998 5.31246 5.19006 5.04436C5.19006 5.04036 5.19406 5.04036 5.19406 5.03636C5.49017 4.70824 5.81029 4.45214 6.15041 4.26007C6.15041 4.26007 6.15442 4.26007 6.15842 4.26007C6.51855 4.072 6.85867 4.13603 7.09476 4.41213C7.09476 4.41213 7.57894 4.99234 7.78701 5.27644C7.98308 5.54454 8.24718 5.9687 8.37923 6.20478C8.61532 6.62894 8.46726 7.0651 8.23518 7.24516L7.76701 7.6173C7.53092 7.80937 7.56293 8.1655 7.56293 8.1655C7.56293 8.1655 8.25518 10.7985 10.8561 11.4587Z"/>
        <path fill-rule="evenodd" clip-rule="evenodd" d="M18.0027 11.2147C17.4986 15.2802 14.5255 15.5362 13.9773 15.7123C13.7452 15.7883 11.5764 16.3285 8.8474 16.1485C8.8474 16.1485 6.81465 18.6014 6.18242 19.2376C6.08239 19.3376 5.96634 19.3777 5.89032 19.3576C5.78228 19.3296 5.75027 19.2016 5.75427 19.0135C5.75427 18.7414 5.77027 15.6643 5.77027 15.6643C1.79682 14.5639 2.0289 10.4184 2.07292 8.24958C2.11694 6.08079 2.52509 4.30014 3.73753 3.1037C5.91032 1.13498 10.396 1.42709 10.396 1.42709C14.1813 1.44309 15.994 2.58351 16.4142 2.96365C17.8107 4.16409 18.5229 7.02513 18.0027 11.2147ZM12.0686 8.08553C12.0766 8.22158 12.1886 8.32562 12.3207 8.32562C12.3247 8.32562 12.3287 8.32562 12.3367 8.32162C12.4767 8.31761 12.5848 8.19757 12.5768 8.05752C12.5208 6.93711 11.9125 6.31288 10.8241 6.25286C10.6841 6.24486 10.564 6.3529 10.556 6.49295C10.548 6.633 10.6561 6.75304 10.7961 6.76104C11.6204 6.80506 12.0246 7.22521 12.0686 8.08553ZM13.6131 8.75786H13.6171C13.7532 8.75786 13.8692 8.64982 13.8732 8.50977C13.8932 7.52141 13.5971 6.6851 12.9849 6.01686C12.3767 5.35262 11.5244 4.97648 10.444 4.89645C10.3039 4.88445 10.1839 4.98848 10.1719 5.12854C10.1599 5.26859 10.2639 5.38863 10.404 5.40063C11.3603 5.46866 12.0846 5.78077 12.6088 6.35699C13.137 6.9332 13.3851 7.63345 13.3651 8.49777C13.361 8.63782 13.4731 8.75386 13.6131 8.75786ZM14.6935 9.02584C14.6935 9.16589 14.8056 9.27793 14.9456 9.27793C15.0897 9.27793 15.2017 9.16189 15.1977 9.01784C15.1817 7.35323 14.6735 6.01674 13.6812 5.04838C12.6928 4.08003 11.4443 3.58785 9.97581 3.57585C9.83976 3.57585 9.72371 3.68789 9.72371 3.82794C9.72371 3.96799 9.83576 4.08403 9.97581 4.08403C11.3083 4.09604 12.4407 4.5402 13.333 5.41252C14.2374 6.29684 14.6815 7.47727 14.6935 9.02584ZM11.4043 11.2546C11.2123 11.4907 10.8561 11.4587 10.8561 11.4587C8.25518 10.7985 7.56293 8.1655 7.56293 8.1655C7.56293 8.1655 7.53092 7.80937 7.76701 7.6173L8.23518 7.24516C8.46726 7.0651 8.61532 6.62894 8.37923 6.20478C8.24718 5.9687 7.98308 5.54454 7.78701 5.27644C7.57894 4.99234 7.09476 4.41213 7.09476 4.41213C6.85867 4.13603 6.51855 4.072 6.15842 4.26007H6.15041C5.81029 4.45214 5.49017 4.70824 5.19406 5.03636C5.19406 5.04036 5.19006 5.04036 5.19006 5.04436C4.96998 5.31246 4.84194 5.57255 4.80992 5.83265C4.80192 5.86466 4.80192 5.90067 4.80192 5.94869C4.80192 6.06073 4.81793 6.17277 4.85394 6.28481L4.86594 6.29282C4.97799 6.68896 5.25809 7.3532 5.87031 8.46161C6.26646 9.18187 6.6706 9.78209 7.07475 10.2863C7.28683 10.5544 7.52692 10.8265 7.80302 11.1066L7.83103 11.1346L7.85904 11.1626L7.88705 11.1906L7.91506 11.2186C8.19516 11.4987 8.46726 11.7348 8.73536 11.9469C9.24355 12.351 9.83976 12.7552 10.56 13.1513C11.6644 13.7635 12.3287 14.0437 12.7288 14.1557L12.7368 14.1677C12.8489 14.2037 12.9609 14.2197 13.0729 14.2197C13.121 14.2197 13.157 14.2197 13.189 14.2117C13.4451 14.1837 13.7092 14.0557 13.9773 13.8316C13.9813 13.8316 13.9813 13.8276 13.9853 13.8276C14.3094 13.5315 14.5695 13.2113 14.7616 12.8712V12.8632C14.9496 12.4991 14.8856 12.159 14.6095 11.9269C14.6055 11.9229 14.0293 11.4427 13.7452 11.2346C13.4811 11.0386 13.0529 10.7745 12.8169 10.6424C12.3927 10.4063 11.9565 10.5544 11.7765 10.7865L11.4043 11.2546Z"/>
        <path d="M12.3207 8.32562C12.1886 8.32562 12.0766 8.22158 12.0686 8.08553C12.0246 7.22521 11.6204 6.80506 10.7961 6.76104C10.6561 6.75304 10.548 6.633 10.556 6.49295C10.564 6.3529 10.6841 6.24486 10.8241 6.25286C11.9125 6.31288 12.5208 6.93711 12.5768 8.05752C12.5848 8.19757 12.4767 8.31761 12.3367 8.32162C12.3287 8.32562 12.3247 8.32562 12.3207 8.32562Z" fill="white"/>
        <path d="M13.6171 8.75786H13.6131C13.4731 8.75386 13.361 8.63782 13.3651 8.49777C13.3851 7.63345 13.137 6.9332 12.6088 6.35699C12.0846 5.78077 11.3603 5.46866 10.404 5.40063C10.2639 5.38863 10.1599 5.26859 10.1719 5.12854C10.1839 4.98848 10.3039 4.88445 10.444 4.89645C11.5244 4.97648 12.3767 5.35262 12.9849 6.01686C13.5971 6.6851 13.8932 7.52141 13.8732 8.50977C13.8692 8.64982 13.7532 8.75786 13.6171 8.75786Z" fill="white"/>
        <path d="M14.9456 9.27793C14.8056 9.27793 14.6935 9.16589 14.6935 9.02584C14.6815 7.47727 14.2374 6.29684 13.333 5.41252C12.4407 4.5402 11.3083 4.09604 9.97581 4.08403C9.83576 4.08403 9.72371 3.96799 9.72371 3.82794C9.72371 3.68789 9.83976 3.57585 9.97581 3.57585C11.4443 3.58785 12.6928 4.08003 13.6812 5.04838C14.6735 6.01674 15.1817 7.35323 15.1977 9.01784C15.2017 9.16189 15.0897 9.27793 14.9456 9.27793C14.9496 9.27793 14.9496 9.27793 14.9456 9.27793Z" fill="white"/>
        <path d="M10.8561 11.4587C10.8561 11.4587 11.2123 11.4907 11.4043 11.2546L11.7765 10.7865C11.9565 10.5544 12.3927 10.4063 12.8169 10.6424C13.0529 10.7745 13.4811 11.0386 13.7452 11.2346C14.0293 11.4427 14.6055 11.9229 14.6095 11.9269C14.8856 12.159 14.9496 12.4991 14.7616 12.8632C14.7616 12.8632 14.7616 12.8672 14.7616 12.8712C14.5695 13.2113 14.3094 13.5315 13.9853 13.8276C13.9813 13.8276 13.9813 13.8316 13.9773 13.8316C13.7092 14.0557 13.4451 14.1837 13.189 14.2117C13.157 14.2197 13.121 14.2197 13.0729 14.2197C12.9609 14.2197 12.8489 14.2037 12.7368 14.1677L12.7288 14.1557C12.3287 14.0437 11.6644 13.7635 10.56 13.1513C9.83976 12.7552 9.24355 12.351 8.73536 11.9469C8.46726 11.7348 8.19516 11.4987 7.91506 11.2186C7.90706 11.2106 7.89505 11.1986 7.88705 11.1906C7.87905 11.1826 7.86704 11.1706 7.85904 11.1626C7.85104 11.1546 7.83903 11.1426 7.83103 11.1346C7.82303 11.1266 7.81102 11.1146 7.80302 11.1066C7.52692 10.8265 7.28683 10.5544 7.07475 10.2863C6.6706 9.78209 6.26646 9.18187 5.87031 8.46161C5.25809 7.3532 4.97799 6.68896 4.86594 6.29282L4.85394 6.28481C4.81793 6.17277 4.80192 6.06073 4.80192 5.94869C4.80192 5.90067 4.80192 5.86466 4.80992 5.83265C4.84194 5.57255 4.96998 5.31246 5.19006 5.04436C5.19006 5.04036 5.19406 5.04036 5.19406 5.03636C5.49017 4.70824 5.81029 4.45214 6.15041 4.26007C6.15041 4.26007 6.15442 4.26007 6.15842 4.26007C6.51855 4.072 6.85867 4.13603 7.09476 4.41213C7.09476 4.41213 7.57894 4.99234 7.78701 5.27644C7.98308 5.54454 8.24718 5.9687 8.37923 6.20478C8.61532 6.62894 8.46726 7.0651 8.23518 7.24516L7.76701 7.6173C7.53092 7.80937 7.56293 8.1655 7.56293 8.1655C7.56293 8.1655 8.25518 10.7985 10.8561 11.4587Z" fill="white"/>
    </symbol>
    <symbol id="icon_instagram" viewBox="0 0 20 20">
        <path d="M13.7893 0.625H6.21073C3.13074 0.625 0.625 3.13074 0.625 6.21073V13.7893C0.625 16.8693 3.13074 19.375 6.21073 19.375H13.7893C16.8693 19.375 19.375 16.8693 19.375 13.7893V6.21073C19.375 3.13074 16.8692 0.625 13.7893 0.625Z"/>
        <path d="M10 5C7.243 5 5 7.243 5 9.99998C5 12.757 7.243 15 10 15C12.757 15 15 12.757 15 9.99998C15 7.24297 12.757 5 10 5ZM10 13.0552C8.31266 13.0552 6.94482 11.6874 6.94482 10C6.94482 8.31267 8.31269 6.94483 10 6.94483C11.6873 6.94483 13.0552 8.31267 13.0552 10C13.0552 11.6873 11.6873 13.0552 10 13.0552Z" fill="white"/>
        <path d="M15.3125 5.625C15.8303 5.625 16.25 5.20527 16.25 4.6875C16.25 4.16973 15.8303 3.75 15.3125 3.75C14.7947 3.75 14.375 4.16973 14.375 4.6875C14.375 5.20527 14.7947 5.625 15.3125 5.625Z" fill="white"/>
    </symbol>
    <symbol id="icon_burger" viewBox="0 0 24 24">
        <rect x="2" y="5" width="20" height="2" rx="1"/>
        <rect x="2" y="11" width="20" height="2" rx="1"/>
        <rect x="2" y="17" width="20" height="2" rx="1"/>
    </symbol>
    <symbol id="icon_search" viewBox="0 0 24 24">
        <circle cx="11.7666" cy="11.7666" r="8.98856" stroke-width="1.5" stroke-linecap="round" stroke-linejoin="round"/>
        <path d="M18.0183 18.4851L21.5423 22" stroke-width="1.5" stroke-linecap="round" stroke-linejoin="round"/>
    </symbol>
    <symbol id="icon_login" viewBox="0 0 24 24">
        <circle cx="11.5789" cy="7.27803" r="4.77803" stroke-width="1.5" stroke-linecap="round" stroke-linejoin="round"/>
        <path fill-rule="evenodd" clip-rule="evenodd" d="M4.00002 18.7013C3.99873 18.3654 4.07385 18.0336 4.2197 17.7311C4.67736 16.8157 5.96798 16.3306 7.03892 16.1109C7.81128 15.9461 8.59431 15.836 9.38217 15.7814C10.8408 15.6533 12.3079 15.6533 13.7666 15.7814C14.5544 15.8366 15.3374 15.9467 16.1099 16.1109C17.1808 16.3306 18.4714 16.77 18.9291 17.7311C19.2224 18.3479 19.2224 19.0639 18.9291 19.6807C18.4714 20.6418 17.1808 21.0812 16.1099 21.2917C15.3384 21.4633 14.5551 21.5766 13.7666 21.6304C12.5794 21.731 11.3866 21.7494 10.1968 21.6853C9.92221 21.6853 9.65677 21.6853 9.38217 21.6304C8.59663 21.5772 7.81632 21.464 7.04807 21.2917C5.96798 21.0812 4.68652 20.6418 4.2197 19.6807C4.0746 19.3746 3.99955 19.04 4.00002 18.7013Z" stroke-width="1.5" stroke-linecap="round" stroke-linejoin="round"/>
    </symbol>
    <symbol id="icon_wishlist" viewBox="0 0 24 24">
        <path fill-rule="evenodd" clip-rule="evenodd" d="M11.761 20.8538C9.5904 19.5179 7.57111 17.9456 5.73929 16.1652C4.45144 14.8829 3.47101 13.3198 2.8731 11.5954C1.79714 8.25031 3.05393 4.42083 6.57112 3.28752C8.41961 2.69243 10.4384 3.03255 11.9961 4.20148C13.5543 3.03398 15.5725 2.69398 17.4211 3.28752C20.9383 4.42083 22.2041 8.25031 21.1281 11.5954C20.5302 13.3198 19.5498 14.8829 18.2619 16.1652C16.4301 17.9456 14.4108 19.5179 12.2402 20.8538L12.0051 21L11.761 20.8538Z"  stroke-width="1.5" stroke-linecap="round" stroke-linejoin="round"/>
    </symbol>
    <symbol id="icon_basket" viewBox="0 0 24 24">
        <path d="M15.7729 9.30504V6.27304C15.7729 4.18904 14.0839 2.50004 12.0009 2.50004C9.91688 2.49104 8.21988 4.17204 8.21088 6.25604V6.27304V9.30504" stroke-width="1.5" stroke-linecap="round" stroke-linejoin="round"/>
        <path fill-rule="evenodd" clip-rule="evenodd" d="M16.7422 21.0004H7.25778C4.90569 21.0004 3 19.0954 3 16.7454V11.2294C3 8.87937 4.90569 6.97437 7.25778 6.97437H16.7422C19.0943 6.97437 21 8.87937 21 11.2294V16.7454C21 19.0954 19.0943 21.0004 16.7422 21.0004Z" stroke-width="1.5" stroke-linecap="round" stroke-linejoin="round"/>
    </symbol>
    <symbol id="icon_cross" viewBox="0 0 24 24">
        <path d="M13.4151 12.0002L19.7069 5.70811C20.0978 5.31752 20.0978 4.68378 19.7069 4.29319C19.316 3.90227 18.6829 3.90227 18.292 4.29319L12.0002 10.5853L5.70804 4.29319C5.31713 3.90227 4.68408 3.90227 4.29318 4.29319C3.90227 4.68378 3.90227 5.31752 4.29318 5.70811L10.5853 12.0002L4.29318 18.2923C3.90227 18.6829 3.90227 19.3166 4.29318 19.7072C4.48863 19.9023 4.74479 20.0001 5.00061 20.0001C5.25643 20.0001 5.51259 19.9023 5.70804 19.7069L12.0002 13.4148L18.292 19.7069C18.4875 19.9023 18.7436 20.0001 18.9995 20.0001C19.2553 20.0001 19.5114 19.9023 19.7069 19.7069C20.0978 19.3163 20.0978 18.6825 19.7069 18.292L13.4151 12.0002Z"/>
    </symbol>
    <symbol id="slider_button" viewBox="0 0 14 14">
        <circle cx="7" cy="7" r="3"/>
        <circle cx="7" cy="7" r="6" stroke="#F9F8F3"/>
    </symbol>
    <symbol id="icon_arrow_right" viewBox="0 0 20 20">
        <path d="M7.5 4.16675L13.3333 10.0001L7.5 15.8334" stroke-width="1.5" stroke-linecap="round" stroke-linejoin="round"/>
    </symbol>
    <symbol id="icon_arrow_top" viewBox="0 0 24 24">
        <path d="M11.25 21C11.25 21.4142 11.5858 21.75 12 21.75C12.4142 21.75 12.75 21.4142 12.75 21L11.25 21ZM12.5303 2.46967C12.2374 2.17678 11.7626 2.17678 11.4697 2.46967L6.6967 7.24264C6.40381 7.53553 6.40381 8.01041 6.6967 8.3033C6.98959 8.59619 7.46447 8.59619 7.75736 8.3033L12 4.06066L16.2426 8.3033C16.5355 8.59619 17.0104 8.59619 17.3033 8.3033C17.5962 8.01041 17.5962 7.53553 17.3033 7.24264L12.5303 2.46967ZM12.75 21L12.75 3L11.25 3L11.25 21L12.75 21Z"/>
    </symbol>
</svg>
